<?xml version="1.0" ?><svg id="Layer_1" style="enable-background:new 0 0 512 512;" version="1.1" viewBox="0 0 512 512" xml:space="preserve" xmlns="http://www.w3.org/2000/svg" xmlns:xlink="http://www.w3.org/1999/xlink"><style type="text/css">
	.st0{fill:#A51E34;}
	.st1{fill:#3B7C8E;}
	.st2{fill:#57AFC4;}
	.st3{fill:#E87D1C;}
	.st4{fill:#FF953E;}
	.st5{fill:#DB3348;}
	.st6{fill:#00826F;}
	.st7{fill:#00D3B4;}
	.st8{fill:#97BE15;}
	.st9{fill:#CBE034;}
</style><g id="XMLID_2_"><path class="st0" d="M26.9,246.8C31,133.3,124.1,42.5,238.6,42v204.8H26.9z" id="XMLID_102_"/><path class="st1" d="M485.9,218.5c0-117.2-94.7-212.2-211.8-212.6v0.3c-0.1,0-0.2,0-0.2,0v0.3c-0.1,0-0.2,0-0.2,0   v0.3c-0.1,0-0.2,0-0.2,0v0.3c-0.1,0-0.2,0-0.2,0v0.3c-0.1,0-0.2,0-0.2,0v0.3c-0.1,0-0.2,0-0.2,0v0.3c-0.1,0-0.2,0-0.2,0V8   c-0.1,0-0.2,0-0.2,0v0.3c-0.1,0-0.2,0-0.2,0v0.3c-0.1,0-0.2,0-0.2,0v0.3c-0.1,0-0.2,0-0.2,0V9c-0.1,0-0.2,0-0.2,0v0.3   c-0.1,0-0.2,0-0.2,0v0.3c-0.1,0-0.2,0-0.2,0v0.3c-0.1,0-0.2,0-0.2,0v0.3c-0.1,0-0.2,0-0.2,0v0.3c-0.1,0-0.2,0-0.2,0v0.3   c-0.1,0-0.2,0-0.2,0v0.3c-0.1,0-0.2,0-0.2,0v0.3c-0.1,0-0.2,0-0.2,0v0.3c-0.1,0-0.2,0-0.2,0v0.3c-0.1,0-0.2,0-0.2,0V12   c-0.1,0-0.2,0-0.2,0v0.3c-0.1,0-0.2,0-0.2,0v0.3c-0.1,0-0.2,0-0.2,0v0.3c-0.1,0-0.2,0-0.2,0V13c-0.1,0-0.2,0-0.2,0v0.3   c-0.1,0-0.2,0-0.2,0v0.3c-0.1,0-0.2,0-0.2,0v0.3c-0.1,0-0.2,0-0.2,0v0.3c-0.1,0-0.2,0-0.2,0v0.3c-0.1,0-0.2,0-0.2,0v0.3   c-0.1,0-0.2,0-0.2,0v0.3c-0.1,0-0.2,0-0.2,0v0.3c-0.1,0-0.2,0-0.2,0v0.3c-0.1,0-0.2,0-0.2,0v0.3c-0.1,0-0.2,0-0.2,0V16   c-0.1,0-0.2,0-0.2,0v0.3c-0.1,0-0.2,0-0.2,0v0.3c-0.1,0-0.2,0-0.2,0v218.8H476c0-0.1,0-0.2,0-0.3h0.2c0-0.1,0-0.2,0-0.3h0.2   c0-0.1,0-0.2,0-0.3h0.2c0-0.1,0-0.2,0-0.3h0.2c0-0.1,0-0.2,0-0.3h0.2c0-0.1,0-0.2,0-0.3h0.2c0-0.1,0-0.2,0-0.3h0.2   c0-0.1,0-0.2,0-0.3h0.2c0-0.1,0-0.2,0-0.3h0.2c0-0.1,0-0.2,0-0.3h0.2c0-0.1,0-0.2,0-0.3h0.2c0-0.1,0-0.2,0-0.3h0.2   c0-0.1,0-0.2,0-0.3h0.2c0-0.1,0-0.2,0-0.3h0.2c0-0.1,0-0.2,0-0.3h0.2c0-0.1,0-0.2,0-0.3h0.2c0-0.1,0-0.2,0-0.3h0.2   c0-0.1,0-0.2,0-0.3h0.2c0-0.1,0-0.2,0-0.3h0.2c0-0.1,0-0.2,0-0.3h0.2c0-0.1,0-0.2,0-0.3h0.2c0-0.1,0-0.2,0-0.3h0.2   c0-0.1,0-0.2,0-0.3h0.2c0-0.1,0-0.2,0-0.3h0.2c0-0.1,0-0.2,0-0.3h0.2c0-0.1,0-0.2,0-0.3h0.2c0-0.1,0-0.2,0-0.3h0.2   c0-0.1,0-0.2,0-0.3h0.2c0-0.1,0-0.2,0-0.3h0.2c0-0.1,0-0.2,0-0.3h0.2c0-0.1,0-0.2,0-0.3h0.2c0-0.1,0-0.2,0-0.3h0.2   c0-0.1,0-0.2,0-0.3h0.2c0-0.1,0-0.2,0-0.3h0.2c0-0.1,0-0.2,0-0.3h0.2c0-0.1,0-0.2,0-0.3h0.2c0-0.1,0-0.2,0-0.3h0.2   c0-0.1,0-0.2,0-0.3h0.2c0-0.1,0-0.2,0-0.3h0.2c0-0.1,0-0.2,0-0.3h0.2C485.8,222.6,485.9,220.5,485.9,218.5z" id="XMLID_104_"/><path class="st2" d="M486,224.4c0.1-2,0.1-4.1,0.1-6.2C486.1,101,391.4,6,274.3,5.6v218.8H486z" id="XMLID_150_"/><path class="st3" d="M249.2,260.5l-211.3-0.3c0,0.1-10.1,11-10.1,11C32,384.6,125,475.4,239.5,475.9   c0,0,10-11,10.1-11L249.2,260.5z" id="XMLID_3_"/><path class="st4" d="M37.9,260.1c4.1,113.5,97.2,204.3,211.6,204.8V260.1H37.9z" id="XMLID_139_"/><path class="st5" d="M37.9,237.7C42,124.1,135.1,33.3,249.5,32.9v204.8H37.9z" id="XMLID_2436_"/><path class="st6" d="M451,369.1c0,0,0-0.1,0.1-0.1c0,0,0.1-0.1,0.1-0.1c0,0,0-0.1,0.1-0.1c0,0,0.1-0.1,0.1-0.1   c0,0,0-0.1,0.1-0.1c0,0,0.1-0.1,0.1-0.1c0,0,0-0.1,0.1-0.1c0,0,0-0.1,0.1-0.1c0,0,0.1-0.1,0.1-0.1c0,0,0-0.1,0.1-0.1   c0,0,0.1-0.1,0.1-0.1c0,0,0-0.1,0.1-0.1c0,0,0-0.1,0.1-0.1c0,0,0.1-0.1,0.1-0.1c0,0,0-0.1,0.1-0.1c0,0,0.1-0.1,0.1-0.1   c0,0,0-0.1,0.1-0.1c0,0,0.1-0.1,0.1-0.1c0,0,0-0.1,0.1-0.1c0,0,0-0.1,0.1-0.1c0,0,0.1-0.1,0.1-0.1c0,0,0-0.1,0.1-0.1   c0,0,0.1-0.1,0.1-0.1c0,0,0-0.1,0.1-0.1c0,0,0-0.1,0.1-0.1c0,0,0.1-0.1,0.1-0.1c0,0,0-0.1,0.1-0.1c0,0,0.1-0.1,0.1-0.1   c0,0,0-0.1,0.1-0.1c0,0,0.1-0.1,0.1-0.1c0,0,0-0.1,0.1-0.1c0,0,0-0.1,0.1-0.1c0,0,0.1-0.1,0.1-0.1c0,0,0-0.1,0.1-0.1   c0,0,0.1-0.1,0.1-0.1c0,0,0-0.1,0.1-0.1c0,0,0.1-0.1,0.1-0.1c0,0,0-0.1,0.1-0.1c0,0,0-0.1,0.1-0.1c0,0,0.1-0.1,0.1-0.1   c0,0,0-0.1,0.1-0.1c0,0,0.1-0.1,0.1-0.1c0,0,0-0.1,0.1-0.1c0,0,0-0.1,0.1-0.1c0,0,0.1-0.1,0.1-0.1c0,0,0-0.1,0.1-0.1   c0,0,0.1-0.1,0.1-0.1c0,0,0-0.1,0.1-0.1c0,0,0.1-0.1,0.1-0.1c0,0,0-0.1,0.1-0.1c0,0,0-0.1,0.1-0.1c0,0,0.1-0.1,0.1-0.1   c0,0,0-0.1,0.1-0.1c0,0,0.1-0.1,0.1-0.1c0,0,0-0.1,0.1-0.1c0,0,0-0.1,0.1-0.1c0,0,0.1-0.1,0.1-0.1c0,0,0-0.1,0.1-0.1   c0,0,0.1-0.1,0.1-0.1c0,0,0-0.1,0.1-0.1c0,0,0.1-0.1,0.1-0.1c0,0,0-0.1,0.1-0.1c0,0,0-0.1,0.1-0.1c0,0,0.1-0.1,0.1-0.1   c0,0,0-0.1,0.1-0.1c0,0,0.1-0.1,0.1-0.1c0,0,0-0.1,0.1-0.1c0,0,0-0.1,0.1-0.1c0,0,0.1-0.1,0.1-0.1c0,0,0-0.1,0.1-0.1   c0,0,0.1-0.1,0.1-0.1c0,0,0-0.1,0.1-0.1c0,0,0.1-0.1,0.1-0.1c0,0,0-0.1,0.1-0.1c0,0,0-0.1,0.1-0.1c0,0,0.1-0.1,0.1-0.1   c0,0,0-0.1,0.1-0.1c0,0,0.1-0.1,0.1-0.1c0,0,0-0.1,0.1-0.1c0,0,0.1-0.1,0.1-0.1c0,0,0-0.1,0.1-0.1c0,0,0-0.1,0.1-0.1   c0,0,0.1-0.1,0.1-0.1c16.8-29.1,26.9-62.6,28.2-98.3H274.9l0.1,0.1h-0.2l0.1,0.1h-0.2l0.1,0.1h-0.2l0.1,0.1h-0.2l0.1,0.1h-0.2   l0.1,0.1h-0.2l0.1,0.1h-0.2l0.1,0.1h-0.2l0.1,0.1h-0.2l0.1,0.1h-0.2l0.1,0.1h-0.2l0.1,0.1H274l0.1,0.1H274l0.1,0.1h-0.2l0.1,0.1   h-0.2l0.1,0.1h-0.2l0.1,0.1h-0.2l0.1,0.1h-0.2l0.1,0.1h-0.2l0.1,0.1h-0.2l0.1,0.1h-0.2l0.1,0.1h-0.2l0.1,0.1h-0.2l0.1,0.1h-0.2   l0.1,0.1h-0.2l0.1,0.1H273l0.1,0.1h-0.2l0.1,0.1h-0.2l0.1,0.1h-0.2l0.1,0.1h-0.2l0.1,0.1h-0.2l0.1,0.1h-0.2l0.1,0.1h-0.2l0.1,0.1   h-0.2l0.1,0.1h-0.2l0.1,0.1h-0.2l0.1,0.1h-0.2l0.1,0.1h-0.2l0.1,0.1H272l0.1,0.1h-0.2l0.1,0.1h-0.2l0.1,0.1h-0.2l0.1,0.1h-0.2   l0.1,0.1h-0.2l0.1,0.1h-0.2l0.1,0.1h-0.2l0.1,0.1h-0.2l0.1,0.1h-0.2l0.1,0.1h-0.2l0.1,0.1h-0.2l0.1,0.1h-0.2l0.1,0.1h-0.2l0.1,0.1   H271l0.1,0.1h-0.2l0.1,0.1h-0.2l0.1,0.1h-0.2l0.1,0.1h-0.2l0.1,0.1h-0.2l0.1,0.1h-0.2l0.1,0.1h-0.2l0.1,0.1h-0.2l0.1,0.1h-0.2   l0.1,0.1h-0.2l0.1,0.1h-0.2l0.1,0.1h-0.2l0.1,0.1H270l0.1,0.1h-0.2l0.1,0.1h-0.2l0.1,0.1h-0.2l0.1,0.1h-0.2l0.1,0.1h-0.2l0.1,0.1   h-0.2l0.1,0.1h-0.2l0.1,0.1h-0.2l0.1,0.1h-0.2l0.1,0.1h-0.2l0.1,0.1h-0.2l0.1,0.1h-0.2l0.1,0.1H269l0.1,0.1H269l0.1,0.1h-0.2   l0.1,0.1h-0.2l0.1,0.1h-0.2l0.1,0.1h-0.2l0.1,0.1h-0.2L414,416.5c14.4-13.9,26.9-29.8,37-47.2C450.9,369.2,451,369.1,451,369.1z" id="XMLID_101_"/><path class="st7" d="M485.4,260.1H275l145.4,145.4C458.8,368.5,483.4,317.2,485.4,260.1z" id="XMLID_195_"/><path class="st8" d="M416.7,434.6L271.3,289.2L264,302v203.6c56.3-0.2,107.4-22.3,145.3-58.2   C409.4,447.3,416.6,434.6,416.7,434.6z" id="XMLID_100_"/><path class="st9" d="M271.3,492.8c56.3-0.2,107.4-22.3,145.3-58.2L271.3,289.2V492.8z" id="XMLID_167_"/><polygon class="st0" id="XMLID_105_" points="249.5,237.7 238.6,246.8 238.6,237.7  "/></g></svg>