<?xml version="1.0" encoding="UTF-8" standalone="no"?>
<svg
   xmlns:dc="http://purl.org/dc/elements/1.1/"
   xmlns:cc="http://creativecommons.org/ns#"
   xmlns:rdf="http://www.w3.org/1999/02/22-rdf-syntax-ns#"
   xmlns:svg="http://www.w3.org/2000/svg"
   xmlns="http://www.w3.org/2000/svg"
   xmlns:sodipodi="http://sodipodi.sourceforge.net/DTD/sodipodi-0.dtd"
   xmlns:inkscape="http://www.inkscape.org/namespaces/inkscape"
   id="Layer_1_1_"
   version="1.1"
   viewBox="0 0 24 24"
   xml:space="preserve"
   inkscape:version="0.91 r13725"
   sodipodi:docname="countdown.svg"
   width="24"
   height="24"><metadata
     id="metadata4326"><rdf:RDF><cc:Work
         rdf:about=""><dc:format>image/svg+xml</dc:format><dc:type
           rdf:resource="http://purl.org/dc/dcmitype/StillImage" /><dc:title></dc:title></cc:Work></rdf:RDF></metadata><defs
     id="defs4324" /><sodipodi:namedview
     pagecolor="#ffffff"
     bordercolor="#666666"
     borderopacity="1"
     objecttolerance="10"
     gridtolerance="10"
     guidetolerance="10"
     inkscape:pageopacity="0"
     inkscape:pageshadow="2"
     inkscape:window-width="1855"
     inkscape:window-height="1056"
     id="namedview4322"
     showgrid="false"
     inkscape:zoom="29.5"
     inkscape:cx="6.9266148"
     inkscape:cy="9.8931445"
     inkscape:window-x="65"
     inkscape:window-y="24"
     inkscape:window-maximized="1"
     inkscape:current-layer="Layer_1_1_" /><path
     d="m 1.5084746,13.495763 c 0,5.782619 4.6877203,10.470339 10.4703394,10.470339 5.782619,0 10.470339,-4.68772 10.470339,-10.470339 0,-5.7826189 -4.68772,-10.4703393 -10.470339,-10.4703393 -5.7826191,0 -10.4703394,4.6877204 -10.4703394,10.4703393 z M 11.978814,4.5211864 c 4.956958,0 8.974576,4.0176187 8.974576,8.9745766 0,4.956958 -4.017618,8.974576 -8.974576,8.974576 -4.956958,0 -8.9745767,-4.017618 -8.9745767,-8.974576 0,-4.9569579 4.0176187,-8.9745766 8.9745767,-8.9745766 z"
     id="path4314"
     inkscape:connector-curvature="0" /><rect
     height="1.4957627"
     width="5.9830508"
     x="8.9872875"
     id="rect4316"
     y="0.033898301" /><rect
     height="2.9914966"
     transform="matrix(0.70710678,-0.70710678,0.70710678,0.70710678,0,0)"
     width="1.4957483"
     x="11.399963"
     y="15.989088"
     id="rect4318" /><path
     d="m 11.978814,6.0169492 0,7.4788138 7.478814,0 c 0,-4.1298011 -3.349013,-7.4788138 -7.478814,-7.4788138 z"
     id="path4320"
     inkscape:connector-curvature="0" /></svg>