<?xml version="1.0" encoding="UTF-8" standalone="no"?>
<svg
   xmlns:dc="http://purl.org/dc/elements/1.1/"
   xmlns:cc="http://creativecommons.org/ns#"
   xmlns:rdf="http://www.w3.org/1999/02/22-rdf-syntax-ns#"
   xmlns:svg="http://www.w3.org/2000/svg"
   xmlns="http://www.w3.org/2000/svg"
   xmlns:sodipodi="http://sodipodi.sourceforge.net/DTD/sodipodi-0.dtd"
   xmlns:inkscape="http://www.inkscape.org/namespaces/inkscape"
   height="24"
   id="Layer_1"
   version="1.1"
   viewBox="0 0 24 24"
   width="24"
   xml:space="preserve"
   inkscape:version="0.91 r13725"
   sodipodi:docname="set.svg"><metadata
     id="metadata4220"><rdf:RDF><cc:Work
         rdf:about=""><dc:format>image/svg+xml</dc:format><dc:type
           rdf:resource="http://purl.org/dc/dcmitype/StillImage" /><dc:title /></cc:Work></rdf:RDF></metadata><defs
     id="defs4218" /><sodipodi:namedview
     pagecolor="#ffffff"
     bordercolor="#666666"
     borderopacity="1"
     objecttolerance="10"
     gridtolerance="10"
     guidetolerance="10"
     inkscape:pageopacity="0"
     inkscape:pageshadow="2"
     inkscape:window-width="1855"
     inkscape:window-height="1056"
     id="namedview4216"
     showgrid="false"
     inkscape:zoom="28.71875"
     inkscape:cx="4.5950327"
     inkscape:cy="9.0451953"
     inkscape:window-x="65"
     inkscape:window-y="24"
     inkscape:window-maximized="1"
     inkscape:current-layer="Layer_1"
     fit-margin-top="0"
     fit-margin-left="0"
     fit-margin-right="0"
     fit-margin-bottom="0" /><path
     style="color:#000000;font-style:normal;font-variant:normal;font-weight:normal;font-stretch:normal;font-size:medium;line-height:normal;font-family:sans-serif;text-indent:0;text-align:start;text-decoration:none;text-decoration-line:none;text-decoration-style:solid;text-decoration-color:#000000;letter-spacing:normal;word-spacing:normal;text-transform:none;direction:ltr;block-progression:tb;writing-mode:lr-tb;baseline-shift:baseline;text-anchor:start;white-space:normal;clip-rule:nonzero;display:inline;overflow:visible;visibility:visible;opacity:1;isolation:auto;mix-blend-mode:normal;color-interpolation:sRGB;color-interpolation-filters:linearRGB;solid-color:#000000;solid-opacity:1;fill:#000000;fill-opacity:1;fill-rule:nonzero;stroke:none;stroke-width:2.68050003;stroke-linecap:butt;stroke-linejoin:miter;stroke-miterlimit:10;stroke-dasharray:none;stroke-dashoffset:0;stroke-opacity:1;color-rendering:auto;image-rendering:auto;shape-rendering:auto;text-rendering:auto;enable-background:accumulate"
     d="m 7.5307905,0.1404782 c -1.2855311,0 -2.4142916,0.29335966 -3.2315437,0.970864 -0.817252,0.6775044 -1.2902272,1.7344698 -1.2902272,3.1400614 0,0.8056235 -0.057279,4.0503034 -0.057279,4.881106 0,0.861857 -0.697128,1.8803284 -2.66905214,1.8803284 l -0.28268796,0 0,0.282688 0,1.774011 0.28268796,0 c 1.96134554,0 2.66905234,1.15611 2.66905214,1.879504 0,0.802382 0.057279,3.988913 0.057279,4.764075 0,1.534031 0.4847338,2.635714 1.3112435,3.326321 C 5.1467726,23.730044 6.2768572,24 7.5307905,24 l 0.8966895,0 0,-2.172906 -0.8089163,0 c -0.7613775,0 -1.2643213,-0.219964 -1.5997005,-0.604936 -0.3353791,-0.384973 -0.5155139,-0.969104 -0.5155141,-1.743928 0,-0.707515 -0.027551,-3.446401 -0.027609,-4.232078 C 5.4917514,14.239341 5.1125798,13.439164 4.5547375,12.869677 4.168438,12.475315 3.6967103,12.220806 3.213412,12.024086 3.6946368,11.826469 4.1655413,11.575673 4.552677,11.188797 5.111094,10.630754 5.4917507,9.8429866 5.4757397,8.836223 c 5.65e-5,-0.786987 0.027609,-3.7014407 0.027609,-4.3808388 0,-0.748803 0.1589459,-1.2731748 0.4755422,-1.6104148 C 6.2954875,2.5077293 6.8020845,2.3137963 7.6185637,2.3137963 l 0.8089163,0 0,-2.1733181 -0.8966895,0 z"
     id="path4144" /><path
     style="color:#000000;font-style:normal;font-variant:normal;font-weight:normal;font-stretch:normal;font-size:medium;line-height:normal;font-family:sans-serif;text-indent:0;text-align:start;text-decoration:none;text-decoration-line:none;text-decoration-style:solid;text-decoration-color:#000000;letter-spacing:normal;word-spacing:normal;text-transform:none;direction:ltr;block-progression:tb;writing-mode:lr-tb;baseline-shift:baseline;text-anchor:start;white-space:normal;clip-rule:nonzero;display:inline;overflow:visible;visibility:visible;opacity:1;isolation:auto;mix-blend-mode:normal;color-interpolation:sRGB;color-interpolation-filters:linearRGB;solid-color:#000000;solid-opacity:1;fill:#000000;fill-opacity:1;fill-rule:nonzero;stroke:none;stroke-width:2.68050003;stroke-linecap:butt;stroke-linejoin:miter;stroke-miterlimit:10;stroke-dasharray:none;stroke-dashoffset:0;stroke-opacity:1;color-rendering:auto;image-rendering:auto;shape-rendering:auto;text-rendering:auto;enable-background:accumulate"
     d="m 16.478843,24.000001 c 1.285532,0 2.414291,-0.29336 3.231544,-0.970864 0.817252,-0.677505 1.290227,-1.73447 1.290227,-3.140062 0,-0.805623 0.05728,-4.050303 0.05728,-4.881106 0,-0.861857 0.697128,-1.880328 2.669052,-1.880328 l 0.282689,0 0,-0.282688 0,-1.774011 -0.282689,0 c -1.961346,0 -2.669052,-1.1561103 -2.669052,-1.8795043 0,-0.802382 -0.05728,-3.9889129 -0.05728,-4.7640749 0,-1.534031 -0.484734,-2.635714 -1.311244,-3.326321 C 18.862861,0.41043485 17.732777,0.14047885 16.478843,0.14047885 l -0.896689,0 0,2.17290595 0.808916,0 c 0.761378,0 1.264322,0.219964 1.599701,0.604936 0.335379,0.384973 0.515514,0.969104 0.515514,1.743928 0,0.707515 0.02755,3.4464008 0.02761,4.2320779 -0.01601,1.006811 0.363161,1.8069883 0.921003,2.3764753 0.386299,0.394362 0.858027,0.648871 1.341325,0.845591 -0.481224,0.197617 -0.952129,0.448413 -1.339265,0.835289 -0.558417,0.558043 -0.939073,1.34581 -0.923062,2.352574 -5.7e-5,0.786987 -0.02761,3.70144 -0.02761,4.380839 0,0.748803 -0.158946,1.273174 -0.475543,1.610414 -0.316596,0.33724 -0.823193,0.531173 -1.639673,0.531173 l -0.808916,0 0,2.173319 0.89669,0 z"
     id="path4148" /></svg>